<svg width="575.6874877929687px" height="237.2175048828125px" xmlns="http://www.w3.org/2000/svg" viewBox="-37.84374389648434 -43.60875244140625 575.6874877929687 237.2175048828125" style="background: rgba(0, 0, 0, 0);" preserveAspectRatio="xMidYMid"><defs><filter id="editing-vr"><feFlood flood-color="#f00" flood-opacity="0.7" result="c1"></feFlood><feFlood flood-color="#00f" flood-opacity="0.7" result="c3"></feFlood><feComposite operator="in" in="c1" in2="SourceAlpha" result="text-c1"></feComposite><feComposite operator="in" in="c3" in2="SourceAlpha" result="text-c3"></feComposite><feOffset in="text-c1" dx="4" dy="-1" result="text1"></feOffset><feOffset in="text-c3" dx="-4" dy="1" result="text3"></feOffset><feBlend in="SourceGraphic" in2="text1" mode="multiply" result="text4"></feBlend><feBlend in="text4" in2="text3" mode="multiply"></feBlend></filter></defs><g filter="url(#editing-vr)"><g transform="translate(47.140005469322205, 126.375)"><path d="M91.24-56.86L91.24-56.86L91.24-56.86Q91.24 1.51 27.95 1.51L27.95 1.51L27.95 1.51Q17.81 1.51 1.10-0.96L1.10-0.96L16.44-81.93L16.44-81.93Q17.54-87.41 18.22-90.56L18.22-90.56L18.22-90.56Q39.05-92.06 48.29-92.06L48.29-92.06L48.29-92.06Q57.54-92.06 66.03-90.15L66.03-90.15L66.03-90.15Q74.53-88.23 80.15-83.98L80.15-83.98L80.15-83.98Q91.24-75.62 91.24-56.86ZM63.02-61.92L63.02-61.92L63.02-61.92Q63.02-82.34 48.36-82.34L48.36-82.34L46.99-82.34L46.99-82.34Q46.31-82.34 45.62-82.20L45.62-82.20L31.51-8.63L31.51-8.63Q32.06-8.36 32.61-8.36L32.61-8.36L33.70-8.36L33.70-8.36Q38.77-8.36 44.05-11.51L44.05-11.51L44.05-11.51Q49.32-14.66 53.43-21.10L53.43-21.10L53.43-21.10Q63.02-36.03 63.02-61.92ZM131.11-7.54L131.11-7.54L131.11-7.54Q126.86 2.74 113.30 2.74L113.30 2.74L113.30 2.74Q106.31 2.74 101.93-2.06L101.93-2.06L101.93-2.06Q98.23-6.30 98.23-10.55L98.23-10.55L98.23-10.55Q98.23-21.65 103.30-43.29L103.30-43.29L108.37-69.87L136.18-72.61L127.82-29.32L127.82-29.32Q125.49-19.18 125.49-15.62L125.49-15.62L125.49-15.62Q125.49-7.81 131.11-7.54ZM110.83-88.91L110.83-88.91L110.83-88.91Q110.83-94.26 115.29-97.13L115.29-97.13L115.29-97.13Q119.74-100.01 126.18-100.01L126.18-100.01L126.18-100.01Q132.62-100.01 136.52-97.13L136.52-97.13L136.52-97.13Q140.43-94.26 140.43-88.91L140.43-88.91L140.43-88.91Q140.43-83.57 136.11-80.83L136.11-80.83L136.11-80.83Q131.79-78.09 125.36-78.09L125.36-78.09L125.36-78.09Q118.92-78.09 114.87-80.83L114.87-80.83L114.87-80.83Q110.83-83.57 110.83-88.91ZM185.64-38.50L185.64-38.50L185.64-38.50Q190.57-47.27 190.57-56.17L190.57-56.17L190.57-56.17Q190.57-62.06 186.32-62.06L186.32-62.06L186.32-62.06Q183.03-62.06 179.61-56.44L179.61-56.44L179.61-56.44Q176.05-50.83 174.95-43.57L174.95-43.57L167.83 0L139.47 2.74L153.44-69.87L176.05-72.61L173.58-58.77L173.58-58.77Q180.29-72.61 195.36-72.61L195.36-72.61L195.36-72.61Q203.31-72.61 207.62-68.50L207.62-68.50L207.62-68.50Q211.94-64.39 211.94-55.96L211.94-55.96L211.94-55.96Q211.94-47.54 206.39-42.20L206.39-42.20L206.39-42.20Q200.84-36.85 191.39-36.85L191.39-36.85L191.39-36.85Q187.28-36.85 185.64-38.50ZM269.62-23.15L269.62-23.15L269.62-23.15Q273.04-20.82 273.04-15.69L273.04-15.69L273.04-15.69Q273.04-10.55 270.44-7.26L270.44-7.26L270.44-7.26Q267.84-3.97 263.59-1.78L263.59-1.78L263.59-1.78Q254.82 2.74 245.37 2.74L245.37 2.74L245.37 2.74Q235.91 2.74 230.37 0.69L230.37 0.69L230.37 0.69Q224.82-1.37 221.12-5.21L221.12-5.21L221.12-5.21Q213.86-12.47 213.86-25.76L213.86-25.76L213.86-25.76Q213.86-46.44 225.09-59.05L225.09-59.05L225.09-59.05Q237.15-72.61 258.11-72.61L258.11-72.61L258.11-72.61Q271.12-72.61 277.56-67.13L277.56-67.13L277.56-67.13Q282.36-63.02 282.36-56.31L282.36-56.31L282.36-56.31Q282.36-32.20 240.71-32.20L240.71-32.20L240.71-32.20Q240.16-28.63 240.16-25.62L240.16-25.62L240.16-25.62Q240.16-19.32 242.97-16.92L242.97-16.92L242.97-16.92Q245.78-14.52 250.98-14.52L250.98-14.52L250.98-14.52Q256.19-14.52 261.74-16.92L261.74-16.92L261.74-16.92Q267.29-19.32 269.62-23.15ZM241.67-38.09L241.67-38.09L241.67-38.09Q251.40-38.09 257.01-44.11L257.01-44.11L257.01-44.11Q262.63-49.87 262.63-59.05L262.63-59.05L262.63-59.05Q262.63-62.20 261.46-63.91L261.46-63.91L261.46-63.91Q260.30-65.62 257.97-65.62L257.97-65.62L257.97-65.62Q255.64-65.62 253.66-64.73L253.66-64.73L253.66-64.73Q251.67-63.84 249.61-60.83L249.61-60.83L249.61-60.83Q244.55-53.98 241.67-38.09ZM354.28-56.99L354.28-56.99L354.28-56.99Q354.28-51.24 349.49-47.68L349.49-47.68L349.49-47.68Q344.69-44.11 336.88-44.11L336.88-44.11L336.88-44.11Q333.60-44.11 331.68-45.07L331.68-45.07L331.68-45.07Q333.18-48.64 333.66-53.09L333.66-53.09L333.66-53.09Q334.14-57.54 334.14-58.77L334.14-58.77L334.14-58.77Q334.14-64.53 330.17-64.53L330.17-64.53L330.17-64.53Q327.43-64.53 324.35-61.10L324.35-61.10L324.35-61.10Q321.27-57.68 318.66-52.33L318.66-52.33L318.66-52.33Q312.91-40.00 312.91-27.54L312.91-27.54L312.91-27.54Q312.91-20.69 315.51-17.60L315.51-17.60L315.51-17.60Q318.11-14.52 323.87-14.52L323.87-14.52L323.87-14.52Q331.81-14.52 338.12-21.10L338.12-21.10L338.12-21.10Q339.90-23.15 340.86-25.48L340.86-25.48L340.86-25.48Q346.06-22.74 346.06-15.21L346.06-15.21L346.06-15.21Q346.06-7.54 337.57-2.47L337.57-2.47L337.57-2.47Q328.80 2.74 314.83 2.74L314.83 2.74L314.83 2.74Q287.02 2.74 287.02-26.72L287.02-26.72L287.02-26.72Q287.02-48.22 299.21-60.55L299.21-60.55L299.21-60.55Q310.99-72.61 332.64-72.61L332.64-72.61L332.64-72.61Q354.28-72.61 354.28-56.99ZM360.17-13.70L360.17-13.70L360.17-13.70Q360.17-17.40 362.09-26.72L362.09-26.72L369.35-63.71L361.27-63.71L361.82-67.82L361.82-67.82Q378.26-72.75 394.15-84.80L394.15-84.80L400.73-84.80L397.44-69.87L408.12-69.87L406.89-63.71L396.34-63.71L389.35-26.72L389.35-26.72Q387.57-18.22 387.57-15.34L387.57-15.34L387.57-15.34Q387.57-8.77 393.33-7.40L393.33-7.40L393.33-7.40Q391.96-2.74 387.03 0L387.03 0L387.03 0Q382.09 2.74 375.11 2.74L375.11 2.74L375.11 2.74Q368.12 2.74 364.15-1.64L364.15-1.64L364.15-1.64Q360.17-6.03 360.17-13.70Z" fill="#444"></path></g></g><style>text {
  font-size: 64px;
  font-family: Arial Black;
  dominant-baseline: central;
  text-anchor: middle;
}</style></svg>